<mxfile host="app.diagrams.net" agent="Mozilla/5.0 (Windows NT 10.0; Win64; x64) AppleWebKit/537.36 (KHTML, like Gecko) Chrome/135.0.0.0 Safari/537.36 Edg/135.0.0.0" version="26.2.15">
  <diagram name="第 1 页" id="I95JbXtNGWgH5xwKB5yV">
    <mxGraphModel dx="2440" dy="927" grid="1" gridSize="10" guides="1" tooltips="1" connect="1" arrows="1" fold="1" page="1" pageScale="1" pageWidth="827" pageHeight="1169" math="0" shadow="0">
      <root>
        <mxCell id="0" />
        <mxCell id="1" parent="0" />
        <mxCell id="fTQGhy_KuE080tfiFoKc-57" value="" style="rounded=1;whiteSpace=wrap;html=1;fillColor=none;strokeColor=#b85450;fontSize=15;strokeWidth=4;" vertex="1" parent="1">
          <mxGeometry x="40" y="240" width="1160" height="520" as="geometry" />
        </mxCell>
        <mxCell id="fTQGhy_KuE080tfiFoKc-107" value="模型架构核心" style="rounded=1;whiteSpace=wrap;html=1;fillColor=none;strokeColor=#82b366;fontSize=15;strokeWidth=4;" vertex="1" parent="1">
          <mxGeometry x="80" y="450" width="1020" height="240" as="geometry" />
        </mxCell>
        <mxCell id="fTQGhy_KuE080tfiFoKc-81" style="edgeStyle=orthogonalEdgeStyle;rounded=0;orthogonalLoop=1;jettySize=auto;html=1;exitX=1;exitY=0.5;exitDx=0;exitDy=0;entryX=0;entryY=0.5;entryDx=0;entryDy=0;" edge="1" parent="1" source="fTQGhy_KuE080tfiFoKc-39" target="fTQGhy_KuE080tfiFoKc-36">
          <mxGeometry relative="1" as="geometry">
            <Array as="points">
              <mxPoint x="1240" y="855" />
              <mxPoint x="1240" y="726" />
            </Array>
          </mxGeometry>
        </mxCell>
        <mxCell id="fTQGhy_KuE080tfiFoKc-86" style="edgeStyle=orthogonalEdgeStyle;rounded=0;orthogonalLoop=1;jettySize=auto;html=1;exitX=1;exitY=0.5;exitDx=0;exitDy=0;entryX=0;entryY=0.5;entryDx=0;entryDy=0;" edge="1" parent="1" source="fTQGhy_KuE080tfiFoKc-39" target="fTQGhy_KuE080tfiFoKc-42">
          <mxGeometry relative="1" as="geometry">
            <Array as="points">
              <mxPoint x="1240" y="855" />
              <mxPoint x="1240" y="510" />
              <mxPoint x="1300" y="510" />
            </Array>
          </mxGeometry>
        </mxCell>
        <mxCell id="fTQGhy_KuE080tfiFoKc-87" style="edgeStyle=orthogonalEdgeStyle;rounded=0;orthogonalLoop=1;jettySize=auto;html=1;exitX=1;exitY=0.5;exitDx=0;exitDy=0;entryX=0;entryY=0.5;entryDx=0;entryDy=0;" edge="1" parent="1" source="fTQGhy_KuE080tfiFoKc-39" target="fTQGhy_KuE080tfiFoKc-47">
          <mxGeometry relative="1" as="geometry">
            <Array as="points">
              <mxPoint x="1240" y="855" />
              <mxPoint x="1240" y="360" />
            </Array>
          </mxGeometry>
        </mxCell>
        <mxCell id="fTQGhy_KuE080tfiFoKc-39" value="" style="rounded=1;whiteSpace=wrap;html=1;fillColor=none;strokeColor=#6c8ebf;strokeWidth=4;fontSize=18;" vertex="1" parent="1">
          <mxGeometry x="40" y="800" width="1160" height="110" as="geometry" />
        </mxCell>
        <mxCell id="fTQGhy_KuE080tfiFoKc-60" value="" style="rounded=1;whiteSpace=wrap;html=1;fillColor=none;strokeColor=#9673a6;strokeWidth=4;fontSize=18;" vertex="1" parent="1">
          <mxGeometry x="-260" y="280" width="200" height="480" as="geometry" />
        </mxCell>
        <mxCell id="fTQGhy_KuE080tfiFoKc-53" value="模型架构核心" style="rounded=1;whiteSpace=wrap;html=1;fillColor=none;strokeColor=#82b366;fontSize=15;strokeWidth=4;" vertex="1" parent="1">
          <mxGeometry x="80" y="300" width="1020" height="140" as="geometry" />
        </mxCell>
        <mxCell id="fTQGhy_KuE080tfiFoKc-40" value="" style="rounded=1;whiteSpace=wrap;html=1;fillColor=none;strokeColor=#d6b656;strokeWidth=4;fontSize=18;" vertex="1" parent="1">
          <mxGeometry x="-480" y="260" width="200" height="520" as="geometry" />
        </mxCell>
        <mxCell id="fTQGhy_KuE080tfiFoKc-43" value="" style="rounded=1;whiteSpace=wrap;html=1;fillColor=none;strokeColor=#9673a6;strokeWidth=4;fontSize=18;" vertex="1" parent="1">
          <mxGeometry x="1290" y="250" width="480" height="550" as="geometry" />
        </mxCell>
        <mxCell id="fTQGhy_KuE080tfiFoKc-42" value="" style="rounded=1;whiteSpace=wrap;html=1;fillColor=none;strokeColor=#d79b00;strokeWidth=4;fontSize=18;" vertex="1" parent="1">
          <mxGeometry x="1310" y="450" width="200" height="120" as="geometry" />
        </mxCell>
        <mxCell id="fTQGhy_KuE080tfiFoKc-96" style="edgeStyle=orthogonalEdgeStyle;rounded=0;orthogonalLoop=1;jettySize=auto;html=1;exitX=1;exitY=0.5;exitDx=0;exitDy=0;entryX=0;entryY=0.5;entryDx=0;entryDy=0;" edge="1" parent="1" source="fTQGhy_KuE080tfiFoKc-4" target="fTQGhy_KuE080tfiFoKc-8">
          <mxGeometry relative="1" as="geometry">
            <Array as="points">
              <mxPoint x="280" y="370" />
            </Array>
          </mxGeometry>
        </mxCell>
        <mxCell id="fTQGhy_KuE080tfiFoKc-4" value="&lt;font&gt;语音识别模块&lt;/font&gt;&lt;div&gt;&lt;font&gt;（唤醒监听模块）&lt;/font&gt;&lt;/div&gt;" style="rounded=1;whiteSpace=wrap;html=1;fillColor=#dae8fc;strokeColor=#6c8ebf;fontSize=18;" vertex="1" parent="1">
          <mxGeometry x="120" y="330" width="160" height="80" as="geometry" />
        </mxCell>
        <mxCell id="fTQGhy_KuE080tfiFoKc-97" style="edgeStyle=orthogonalEdgeStyle;rounded=0;orthogonalLoop=1;jettySize=auto;html=1;exitX=1;exitY=0.5;exitDx=0;exitDy=0;entryX=0;entryY=0.5;entryDx=0;entryDy=0;" edge="1" parent="1" source="fTQGhy_KuE080tfiFoKc-8" target="fTQGhy_KuE080tfiFoKc-15">
          <mxGeometry relative="1" as="geometry">
            <Array as="points">
              <mxPoint x="520" y="370" />
            </Array>
          </mxGeometry>
        </mxCell>
        <mxCell id="fTQGhy_KuE080tfiFoKc-108" value="Text" style="edgeLabel;html=1;align=center;verticalAlign=middle;resizable=0;points=[];" vertex="1" connectable="0" parent="fTQGhy_KuE080tfiFoKc-97">
          <mxGeometry x="-0.0735" y="-1" relative="1" as="geometry">
            <mxPoint as="offset" />
          </mxGeometry>
        </mxCell>
        <mxCell id="fTQGhy_KuE080tfiFoKc-8" value="&lt;font&gt;语义解析模块&lt;/font&gt;&lt;div&gt;&lt;font&gt;（情绪识别/意图识别）&lt;/font&gt;&lt;/div&gt;" style="rounded=1;whiteSpace=wrap;html=1;fillColor=#dae8fc;strokeColor=#6c8ebf;dashed=1;dashPattern=12 12;fontSize=18;" vertex="1" parent="1">
          <mxGeometry x="360" y="330" width="160" height="80" as="geometry" />
        </mxCell>
        <mxCell id="fTQGhy_KuE080tfiFoKc-102" style="edgeStyle=orthogonalEdgeStyle;rounded=0;orthogonalLoop=1;jettySize=auto;html=1;exitX=1;exitY=0.5;exitDx=0;exitDy=0;entryX=0;entryY=0.5;entryDx=0;entryDy=0;" edge="1" parent="1" source="fTQGhy_KuE080tfiFoKc-14" target="fTQGhy_KuE080tfiFoKc-22">
          <mxGeometry relative="1" as="geometry" />
        </mxCell>
        <mxCell id="fTQGhy_KuE080tfiFoKc-103" style="edgeStyle=orthogonalEdgeStyle;rounded=0;orthogonalLoop=1;jettySize=auto;html=1;exitX=1;exitY=0.5;exitDx=0;exitDy=0;entryX=0;entryY=0.5;entryDx=0;entryDy=0;" edge="1" parent="1" source="fTQGhy_KuE080tfiFoKc-14" target="fTQGhy_KuE080tfiFoKc-95">
          <mxGeometry relative="1" as="geometry" />
        </mxCell>
        <mxCell id="fTQGhy_KuE080tfiFoKc-14" value="指令控制模块&lt;br&gt;&lt;div&gt;&lt;font&gt;（控制管理）&lt;/font&gt;&lt;/div&gt;" style="rounded=1;whiteSpace=wrap;html=1;fillColor=#dae8fc;strokeColor=#6c8ebf;fontSize=18;" vertex="1" parent="1">
          <mxGeometry x="680" y="520" width="160" height="80" as="geometry" />
        </mxCell>
        <mxCell id="fTQGhy_KuE080tfiFoKc-98" style="edgeStyle=orthogonalEdgeStyle;rounded=0;orthogonalLoop=1;jettySize=auto;html=1;exitX=1;exitY=0.5;exitDx=0;exitDy=0;entryX=0;entryY=0.5;entryDx=0;entryDy=0;" edge="1" parent="1" source="fTQGhy_KuE080tfiFoKc-15" target="fTQGhy_KuE080tfiFoKc-21">
          <mxGeometry relative="1" as="geometry">
            <Array as="points">
              <mxPoint x="840" y="370" />
            </Array>
          </mxGeometry>
        </mxCell>
        <mxCell id="fTQGhy_KuE080tfiFoKc-15" value="语言模型&lt;br&gt;&lt;div&gt;（回复信息）&lt;/div&gt;" style="rounded=1;whiteSpace=wrap;html=1;fillColor=#dae8fc;strokeColor=#6c8ebf;fontSize=18;" vertex="1" parent="1">
          <mxGeometry x="680" y="330" width="160" height="80" as="geometry" />
        </mxCell>
        <mxCell id="fTQGhy_KuE080tfiFoKc-99" style="edgeStyle=orthogonalEdgeStyle;rounded=0;orthogonalLoop=1;jettySize=auto;html=1;exitX=1;exitY=0.5;exitDx=0;exitDy=0;entryX=1;entryY=0.25;entryDx=0;entryDy=0;" edge="1" parent="1" source="fTQGhy_KuE080tfiFoKc-21" target="fTQGhy_KuE080tfiFoKc-57">
          <mxGeometry relative="1" as="geometry">
            <Array as="points">
              <mxPoint x="1120" y="370" />
              <mxPoint x="1120" y="370" />
            </Array>
          </mxGeometry>
        </mxCell>
        <mxCell id="fTQGhy_KuE080tfiFoKc-21" value="&lt;font&gt;语音生成&lt;/font&gt;" style="rounded=1;whiteSpace=wrap;html=1;fillColor=#dae8fc;strokeColor=#6c8ebf;fontSize=18;" vertex="1" parent="1">
          <mxGeometry x="920" y="330" width="160" height="80" as="geometry" />
        </mxCell>
        <mxCell id="fTQGhy_KuE080tfiFoKc-101" style="edgeStyle=orthogonalEdgeStyle;rounded=0;orthogonalLoop=1;jettySize=auto;html=1;exitX=1;exitY=0.5;exitDx=0;exitDy=0;entryX=1;entryY=0.5;entryDx=0;entryDy=0;" edge="1" parent="1" source="fTQGhy_KuE080tfiFoKc-22" target="fTQGhy_KuE080tfiFoKc-57">
          <mxGeometry relative="1" as="geometry">
            <Array as="points">
              <mxPoint x="1110" y="500" />
              <mxPoint x="1110" y="500" />
            </Array>
          </mxGeometry>
        </mxCell>
        <mxCell id="fTQGhy_KuE080tfiFoKc-22" value="&lt;font&gt;软件层控制&lt;/font&gt;&lt;div&gt;&lt;font&gt;（虚拟人动作、视频播放、图片展示）&lt;/font&gt;&lt;/div&gt;" style="rounded=1;whiteSpace=wrap;html=1;fillColor=#dae8fc;strokeColor=#6c8ebf;fontSize=18;" vertex="1" parent="1">
          <mxGeometry x="920" y="460" width="160" height="80" as="geometry" />
        </mxCell>
        <mxCell id="fTQGhy_KuE080tfiFoKc-29" value="&lt;span&gt;虚拟人屏&lt;/span&gt;" style="rounded=0;whiteSpace=wrap;html=1;fillColor=#e1d5e7;strokeColor=#9673a6;fontSize=18;" vertex="1" parent="1">
          <mxGeometry x="1330" y="480" width="160" height="80" as="geometry" />
        </mxCell>
        <mxCell id="fTQGhy_KuE080tfiFoKc-59" style="edgeStyle=orthogonalEdgeStyle;rounded=0;orthogonalLoop=1;jettySize=auto;html=1;exitX=1;exitY=0.5;exitDx=0;exitDy=0;entryX=0;entryY=0.5;entryDx=0;entryDy=0;" edge="1" parent="1" source="fTQGhy_KuE080tfiFoKc-31" target="fTQGhy_KuE080tfiFoKc-39">
          <mxGeometry relative="1" as="geometry">
            <mxPoint y="639.9999999999998" as="targetPoint" />
            <Array as="points">
              <mxPoint x="-30" y="680" />
              <mxPoint x="-30" y="855" />
            </Array>
          </mxGeometry>
        </mxCell>
        <mxCell id="fTQGhy_KuE080tfiFoKc-31" value="控制屏" style="rounded=0;whiteSpace=wrap;html=1;fillColor=#e1d5e7;strokeColor=#9673a6;fontSize=18;" vertex="1" parent="1">
          <mxGeometry x="-240" y="640" width="160" height="80" as="geometry" />
        </mxCell>
        <mxCell id="fTQGhy_KuE080tfiFoKc-88" style="edgeStyle=orthogonalEdgeStyle;rounded=0;orthogonalLoop=1;jettySize=auto;html=1;exitX=1;exitY=0.5;exitDx=0;exitDy=0;entryX=0;entryY=0.5;entryDx=0;entryDy=0;" edge="1" parent="1" source="fTQGhy_KuE080tfiFoKc-36" target="fTQGhy_KuE080tfiFoKc-62">
          <mxGeometry relative="1" as="geometry" />
        </mxCell>
        <mxCell id="fTQGhy_KuE080tfiFoKc-36" value="&lt;span&gt;亮度控制盒&lt;/span&gt;" style="rounded=0;whiteSpace=wrap;html=1;fillColor=#e1d5e7;strokeColor=#9673a6;fontSize=18;" vertex="1" parent="1">
          <mxGeometry x="1330" y="686" width="160" height="80" as="geometry" />
        </mxCell>
        <mxCell id="fTQGhy_KuE080tfiFoKc-58" style="edgeStyle=orthogonalEdgeStyle;rounded=0;orthogonalLoop=1;jettySize=auto;html=1;exitX=1;exitY=0.5;exitDx=0;exitDy=0;entryX=0;entryY=0.5;entryDx=0;entryDy=0;" edge="1" parent="1" source="fTQGhy_KuE080tfiFoKc-45" target="fTQGhy_KuE080tfiFoKc-39">
          <mxGeometry relative="1" as="geometry">
            <mxPoint x="160" y="925" as="targetPoint" />
            <Array as="points">
              <mxPoint x="-30" y="360" />
              <mxPoint x="-30" y="855" />
            </Array>
          </mxGeometry>
        </mxCell>
        <mxCell id="fTQGhy_KuE080tfiFoKc-45" value="&lt;font style=&quot;font-size: 18px;&quot;&gt;麦克风&lt;/font&gt;" style="rounded=0;whiteSpace=wrap;html=1;fillColor=#e1d5e7;strokeColor=#9673a6;" vertex="1" parent="1">
          <mxGeometry x="-240" y="320" width="160" height="80" as="geometry" />
        </mxCell>
        <mxCell id="fTQGhy_KuE080tfiFoKc-47" value="&lt;font style=&quot;font-size: 18px;&quot;&gt;扬声器&lt;/font&gt;" style="rounded=0;whiteSpace=wrap;html=1;fillColor=#e1d5e7;strokeColor=#9673a6;" vertex="1" parent="1">
          <mxGeometry x="1330" y="320" width="160" height="80" as="geometry" />
        </mxCell>
        <mxCell id="fTQGhy_KuE080tfiFoKc-51" style="edgeStyle=orthogonalEdgeStyle;rounded=0;orthogonalLoop=1;jettySize=auto;html=1;exitX=1;exitY=0.5;exitDx=0;exitDy=0;entryX=0;entryY=0.5;entryDx=0;entryDy=0;" edge="1" parent="1" source="fTQGhy_KuE080tfiFoKc-48" target="fTQGhy_KuE080tfiFoKc-80">
          <mxGeometry relative="1" as="geometry">
            <Array as="points">
              <mxPoint x="-320" y="665" />
            </Array>
          </mxGeometry>
        </mxCell>
        <mxCell id="fTQGhy_KuE080tfiFoKc-48" value="&lt;span style=&quot;font-size: 18px;&quot;&gt;用户点击&lt;/span&gt;" style="ellipse;whiteSpace=wrap;html=1;fillColor=#fff2cc;strokeColor=#d6b656;" vertex="1" parent="1">
          <mxGeometry x="-440" y="625" width="120" height="80" as="geometry" />
        </mxCell>
        <mxCell id="fTQGhy_KuE080tfiFoKc-50" style="edgeStyle=orthogonalEdgeStyle;rounded=0;orthogonalLoop=1;jettySize=auto;html=1;exitX=1;exitY=0.5;exitDx=0;exitDy=0;entryX=0;entryY=0.5;entryDx=0;entryDy=0;" edge="1" parent="1" source="fTQGhy_KuE080tfiFoKc-49" target="fTQGhy_KuE080tfiFoKc-45">
          <mxGeometry relative="1" as="geometry" />
        </mxCell>
        <mxCell id="fTQGhy_KuE080tfiFoKc-49" value="&lt;span style=&quot;font-size: 18px;&quot;&gt;用户说话&lt;/span&gt;" style="ellipse;whiteSpace=wrap;html=1;fillColor=#fff2cc;strokeColor=#d6b656;" vertex="1" parent="1">
          <mxGeometry x="-440" y="320" width="120" height="80" as="geometry" />
        </mxCell>
        <mxCell id="fTQGhy_KuE080tfiFoKc-62" value="&lt;span&gt;HUD&lt;/span&gt;" style="rounded=0;whiteSpace=wrap;html=1;fillColor=#e1d5e7;strokeColor=#9673a6;fontSize=18;" vertex="1" parent="1">
          <mxGeometry x="1570" y="686" width="160" height="80" as="geometry" />
        </mxCell>
        <mxCell id="fTQGhy_KuE080tfiFoKc-65" value="&lt;font style=&quot;font-size: 20px;&quot;&gt;数据层&lt;/font&gt;" style="rounded=1;whiteSpace=wrap;html=1;fillColor=#dae8fc;strokeColor=#6c8ebf;fontSize=15;" vertex="1" parent="1">
          <mxGeometry x="300" y="120" width="640" height="80" as="geometry" />
        </mxCell>
        <mxCell id="fTQGhy_KuE080tfiFoKc-89" style="edgeStyle=orthogonalEdgeStyle;rounded=0;orthogonalLoop=1;jettySize=auto;html=1;exitX=1;exitY=0.5;exitDx=0;exitDy=0;entryX=0;entryY=0.5;entryDx=0;entryDy=0;" edge="1" parent="1" source="fTQGhy_KuE080tfiFoKc-69" target="fTQGhy_KuE080tfiFoKc-79">
          <mxGeometry relative="1" as="geometry" />
        </mxCell>
        <mxCell id="fTQGhy_KuE080tfiFoKc-69" value="&lt;font style=&quot;font-size: 20px;&quot;&gt;WebSockt&lt;/font&gt;" style="rounded=1;whiteSpace=wrap;html=1;fillColor=#dae8fc;strokeColor=#6c8ebf;fontSize=15;" vertex="1" parent="1">
          <mxGeometry x="240" y="820" width="230" height="70" as="geometry" />
        </mxCell>
        <mxCell id="fTQGhy_KuE080tfiFoKc-76" value="&lt;font style=&quot;font-size: 20px;&quot;&gt;通信层&lt;/font&gt;" style="text;html=1;align=center;verticalAlign=middle;whiteSpace=wrap;rounded=0;" vertex="1" parent="1">
          <mxGeometry x="70" y="810" width="130" height="30" as="geometry" />
        </mxCell>
        <mxCell id="fTQGhy_KuE080tfiFoKc-78" value="&lt;font style=&quot;font-size: 20px;&quot;&gt;交互控制层&lt;/font&gt;" style="text;html=1;align=center;verticalAlign=middle;whiteSpace=wrap;rounded=0;" vertex="1" parent="1">
          <mxGeometry x="118" y="246" width="140" height="30" as="geometry" />
        </mxCell>
        <mxCell id="fTQGhy_KuE080tfiFoKc-79" value="&lt;span style=&quot;font-size: 20px;&quot;&gt;Flask-Server&lt;/span&gt;" style="rounded=1;whiteSpace=wrap;html=1;fillColor=#dae8fc;strokeColor=#6c8ebf;fontSize=15;" vertex="1" parent="1">
          <mxGeometry x="740" y="820" width="230" height="70" as="geometry" />
        </mxCell>
        <mxCell id="fTQGhy_KuE080tfiFoKc-80" value="" style="rounded=1;whiteSpace=wrap;html=1;fillColor=none;strokeColor=#d79b00;strokeWidth=4;fontSize=18;" vertex="1" parent="1">
          <mxGeometry x="-250" y="600" width="180" height="130" as="geometry" />
        </mxCell>
        <mxCell id="fTQGhy_KuE080tfiFoKc-90" value="&lt;font style=&quot;font-size: 20px;&quot;&gt;界面&lt;/font&gt;" style="text;html=1;align=center;verticalAlign=middle;whiteSpace=wrap;rounded=0;" vertex="1" parent="1">
          <mxGeometry x="-240" y="610" width="60" height="30" as="geometry" />
        </mxCell>
        <mxCell id="fTQGhy_KuE080tfiFoKc-91" value="&lt;font style=&quot;font-size: 20px;&quot;&gt;界面&lt;/font&gt;" style="text;html=1;align=center;verticalAlign=middle;whiteSpace=wrap;rounded=0;" vertex="1" parent="1">
          <mxGeometry x="1320" y="450" width="60" height="30" as="geometry" />
        </mxCell>
        <mxCell id="fTQGhy_KuE080tfiFoKc-93" value="&lt;font style=&quot;font-size: 20px;&quot;&gt;输出设备&lt;/font&gt;" style="text;html=1;align=center;verticalAlign=middle;whiteSpace=wrap;rounded=0;" vertex="1" parent="1">
          <mxGeometry x="1344" y="260" width="96" height="30" as="geometry" />
        </mxCell>
        <mxCell id="fTQGhy_KuE080tfiFoKc-94" value="&lt;font style=&quot;font-size: 20px;&quot;&gt;输入设备&lt;/font&gt;" style="text;html=1;align=center;verticalAlign=middle;whiteSpace=wrap;rounded=0;" vertex="1" parent="1">
          <mxGeometry x="-240" y="290" width="90" height="30" as="geometry" />
        </mxCell>
        <mxCell id="fTQGhy_KuE080tfiFoKc-100" style="edgeStyle=orthogonalEdgeStyle;rounded=0;orthogonalLoop=1;jettySize=auto;html=1;exitX=1;exitY=0.5;exitDx=0;exitDy=0;entryX=1;entryY=0.75;entryDx=0;entryDy=0;" edge="1" parent="1" source="fTQGhy_KuE080tfiFoKc-95" target="fTQGhy_KuE080tfiFoKc-57">
          <mxGeometry relative="1" as="geometry">
            <Array as="points">
              <mxPoint x="1080" y="630" />
            </Array>
          </mxGeometry>
        </mxCell>
        <mxCell id="fTQGhy_KuE080tfiFoKc-95" value="&lt;font&gt;硬件层控制&lt;/font&gt;&lt;div&gt;&lt;font&gt;（信号）&lt;/font&gt;&lt;/div&gt;" style="rounded=1;whiteSpace=wrap;html=1;fillColor=#dae8fc;strokeColor=#6c8ebf;fontSize=18;" vertex="1" parent="1">
          <mxGeometry x="920" y="590" width="160" height="80" as="geometry" />
        </mxCell>
        <mxCell id="fTQGhy_KuE080tfiFoKc-104" value="&lt;font&gt;语音识别模块&lt;/font&gt;&lt;div&gt;&lt;font&gt;（唤醒监听模块）&lt;/font&gt;&lt;/div&gt;" style="rounded=1;whiteSpace=wrap;html=1;fillColor=#dae8fc;strokeColor=#6c8ebf;fontSize=18;" vertex="1" parent="1">
          <mxGeometry x="120" y="520" width="160" height="80" as="geometry" />
        </mxCell>
        <mxCell id="fTQGhy_KuE080tfiFoKc-106" style="edgeStyle=orthogonalEdgeStyle;rounded=0;orthogonalLoop=1;jettySize=auto;html=1;exitX=1;exitY=0.5;exitDx=0;exitDy=0;entryX=0;entryY=0.5;entryDx=0;entryDy=0;" edge="1" parent="1" source="fTQGhy_KuE080tfiFoKc-105" target="fTQGhy_KuE080tfiFoKc-14">
          <mxGeometry relative="1" as="geometry" />
        </mxCell>
        <mxCell id="fTQGhy_KuE080tfiFoKc-105" value="&lt;font&gt;语义解析模块&lt;/font&gt;&lt;div&gt;&lt;font&gt;（情绪识别/意图识别）&lt;/font&gt;&lt;/div&gt;" style="rounded=1;whiteSpace=wrap;html=1;fillColor=#dae8fc;strokeColor=#6c8ebf;dashed=1;dashPattern=12 12;fontSize=18;" vertex="1" parent="1">
          <mxGeometry x="360" y="520" width="160" height="80" as="geometry" />
        </mxCell>
      </root>
    </mxGraphModel>
  </diagram>
</mxfile>
